<?xml version="1.0" standalone="no"?>
<!DOCTYPE svg PUBLIC "-//W3C//DTD SVG 20010904//EN"
 "http://www.w3.org/TR/2001/REC-SVG-20010904/DTD/svg10.dtd">
<svg version="1.0" xmlns="http://www.w3.org/2000/svg"
 width="388.000000pt" height="388.000000pt" viewBox="0 0 388.000000 388.000000"
 preserveAspectRatio="xMidYMid meet">
<metadata>
Created by potrace 1.11, written by Peter Selinger 2001-2013
</metadata>
<g transform="translate(0.000000,388.000000) scale(0.100000,-0.100000)"
fill="#000000" stroke="none">
<path d="M1880 3866 c-19 -7 -143 -75 -275 -151 -132 -76 -260 -149 -285 -163
-25 -13 -49 -28 -55 -32 -5 -4 -30 -19 -55 -32 -25 -14 -180 -103 -345 -198
-165 -95 -320 -184 -345 -198 -25 -13 -49 -28 -55 -32 -5 -4 -37 -22 -70 -40
-89 -49 -122 -77 -145 -124 -20 -43 -20 -51 -18 -967 l3 -924 30 -42 c34 -47
-30 -9 933 -562 364 -209 680 -385 702 -391 24 -6 53 -7 77 -2 21 5 391 212
823 460 691 396 789 455 815 492 l30 42 0 943 0 943 -31 39 c-26 32 -216 153
-319 203 -11 6 -33 19 -50 29 -27 16 -848 488 -955 549 -25 14 -62 36 -82 49
-21 12 -40 23 -43 23 -2 0 -33 17 -67 38 -103 63 -150 73 -218 48z m209 -640
c53 -30 147 -84 210 -120 62 -36 115 -66 116 -66 2 0 149 -83 327 -185 181
-105 334 -199 349 -216 14 -16 31 -47 38 -68 15 -52 16 -1209 0 -1264 -6 -22
-25 -54 -42 -72 -18 -18 -264 -165 -561 -335 -521 -299 -529 -303 -585 -303
-55 0 -63 4 -566 292 -280 161 -527 304 -547 317 -21 13 -47 42 -58 64 -20 38
-20 57 -20 671 l0 631 22 39 c12 22 42 52 67 68 66 41 1012 582 1036 592 11 4
42 8 69 8 42 1 64 -7 145 -53z"/>
<path d="M1880 3077 c-57 -22 -872 -496 -904 -525 -57 -53 -56 -46 -56 -613 0
-568 -1 -556 58 -612 38 -35 875 -514 921 -527 21 -5 54 -7 72 -4 40 8 900
498 936 534 56 55 54 39 56 609 l2 528 -30 48 c-28 45 -49 59 -385 252 -195
113 -398 229 -451 259 -106 60 -162 73 -219 51z"/>
</g>
</svg>
